<svg xmlns="http://www.w3.org/2000/svg" viewBox="0 0 64 64" role="img" aria-labelledby="title">
  <title>Air DnD</title>
  <defs>
    <linearGradient id="bg" x1="10%" y1="10%" x2="90%" y2="90%">
      <stop offset="0%" stop-color="#f4c14c" />
      <stop offset="55%" stop-color="#d66a26" />
      <stop offset="100%" stop-color="#8f2d1d" />
    </linearGradient>
  </defs>
  <rect width="64" height="64" rx="18" fill="url(#bg)" />
  <path d="M17 46L28 18h8l11 28h-7l-2.4-6.4H26.3L24 46h-7Zm11.6-12h6.8L32 25.2 28.6 34Z" fill="#1d160f" />
  <path d="M44 18h4.8c5 0 8.2 2.6 8.2 7 0 4.7-3.7 7.6-8.6 7.6h-4.4V18Zm4.8 10.2c2.2 0 3.6-1.2 3.6-3.2 0-1.9-1.4-3-3.5-3h-0.6v6.2h0.5Z" fill="#fff7ea" />
  <circle cx="49" cy="47" r="4" fill="#fff7ea" opacity="0.92" />
</svg>
